<svg width="168" height="31" viewBox="0 0 168 31" fill="none" xmlns="http://www.w3.org/2000/svg">
<g clip-path="url(#clip0_1082_7249)">
<mask id="mask0_1082_7249" style="mask-type:luminance" maskUnits="userSpaceOnUse" x="0" y="0" width="31" height="31">
<path d="M30.5732 0H0V30.5732H30.5732V0Z" fill="white"/>
</mask>
<g mask="url(#mask0_1082_7249)">
<mask id="mask1_1082_7249" style="mask-type:luminance" maskUnits="userSpaceOnUse" x="0" y="0" width="31" height="31">
<path d="M30.5732 0H0V30.5732H30.5732V0Z" fill="white"/>
</mask>
<g mask="url(#mask1_1082_7249)">
<path d="M21.6355 23.8934C20.042 25.0704 18.1532 25.782 16.1791 25.9491C14.2051 26.1161 12.2235 25.7317 10.4551 24.8389C8.68659 23.9461 7.20067 22.58 6.1628 20.8926C5.12491 19.2051 4.57585 17.2628 4.57672 15.2817C4.5776 13.3007 5.1284 11.3588 6.16778 9.67229C7.20715 7.98581 8.69428 6.62096 10.4635 5.72977C12.2328 4.83857 14.2147 4.45601 16.1885 4.62471C18.1625 4.7934 20.0507 5.50672 21.6431 6.68523L24.6072 3.1693C22.3448 1.42901 19.6404 0.356867 16.8001 0.0742655C13.9599 -0.208336 11.0973 0.309891 8.53638 1.57028C5.97547 2.83066 3.81858 4.78285 2.30991 7.20581C0.80125 9.62877 0.0010811 12.4257 1.09472e-06 15.28C-0.00107891 18.1343 0.796975 20.9317 2.30381 23.3559C3.81063 25.7801 5.96604 27.7338 8.526 28.9962C11.086 30.2584 13.9482 30.7789 16.7887 30.4984C19.6291 30.2179 22.3344 29.1479 24.598 27.4093L21.6355 23.8934Z" fill="black"/>
<path d="M22.687 23.0048L25.6496 26.5207C27.2018 25.0898 28.4407 23.3529 29.2884 21.4194C30.136 19.486 30.574 17.3978 30.5746 15.2868C30.5754 13.1756 30.1388 11.0873 29.2925 9.15323C28.4461 7.21918 27.2083 5.48141 25.6572 4.04941L22.6916 7.56533C23.7352 8.56205 24.566 9.76005 25.1336 11.0869C25.7011 12.4138 25.9938 13.8419 25.9938 15.2851C25.9938 16.7283 25.7011 18.1564 25.1336 19.4832C24.566 20.8101 23.7352 22.0081 22.6916 23.0048H22.687Z" fill="#6A0DAD"/>
</g>
</g>
<path d="M35.7705 25.9567V4.24966H42.1297V12.535H48.0915V4.24966H54.4508V25.9567H48.0915V17.549H42.1297V25.9567H35.7705Z" fill="#6A0DAD"/>
<path d="M64.5309 26.3235C59.0583 26.3235 55.4507 22.9605 55.4507 17.8547C55.4507 12.749 59.0583 9.38596 64.5309 9.38596C69.973 9.38596 73.5806 12.749 73.5806 17.8547C73.5806 22.9605 69.973 26.3235 64.5309 26.3235ZM61.8711 17.8547C61.8711 20.4535 62.8188 21.8904 64.5309 21.8904C66.243 21.8904 67.1602 20.4535 67.1602 17.8547C67.1602 15.256 66.243 13.8191 64.5309 13.8191C62.8188 13.8191 61.8711 15.256 61.8711 17.8547Z" fill="#6A0DAD"/>
<path d="M83.0959 26.3235C77.6233 26.3235 74.0156 22.9605 74.0156 17.8547C74.0156 12.749 77.6233 9.38596 83.0959 9.38596C88.5379 9.38596 92.1456 12.749 92.1456 17.8547C92.1456 22.9605 88.5379 26.3235 83.0959 26.3235ZM80.436 17.8547C80.436 20.4535 81.3838 21.8904 83.0959 21.8904C84.808 21.8904 85.7252 20.4535 85.7252 17.8547C85.7252 15.256 84.808 13.8191 83.0959 13.8191C81.3838 13.8191 80.436 15.256 80.436 17.8547Z" fill="#6A0DAD"/>
<path d="M110.405 4.24966V25.9567H104.26L104.168 23.6025C103.251 25.3452 101.6 26.3235 99.429 26.3235C95.1182 26.3235 92.5806 22.8993 92.5806 17.8548C92.5806 12.8102 95.1182 9.38597 99.429 9.38597C101.447 9.38597 103.098 10.3337 104.107 12.107V4.24966H110.405ZM98.9704 17.8548C98.9704 20.1478 100.04 21.921 101.691 21.921C103.434 21.921 104.382 20.1478 104.382 17.8548C104.382 15.47 103.404 13.7579 101.691 13.7579C99.9182 13.7579 98.9704 15.4395 98.9704 17.8548Z" fill="#6A0DAD"/>
<path d="M111.643 25.9567V4.24966H118.002V12.535H123.964V4.24966H130.323V25.9567H123.964V17.549H118.002V25.9567H111.643Z" fill="#6A0DAD"/>
<path d="M148.449 25.9567H142.793L142.671 23.5719C141.754 25.6204 140.011 26.3235 137.963 26.3235C134.6 26.3235 132.307 24.214 132.307 20.1783V9.75284H138.605V17.977C138.605 20.2395 138.819 21.5235 140.286 21.5235C141.693 21.5235 142.151 20.2395 142.151 17.977V9.75284H148.449V25.9567Z" fill="#6A0DAD"/>
<path d="M150.142 4.24966H156.44V12.107C157.449 10.3337 159.1 9.38597 161.118 9.38597C165.429 9.38597 167.966 12.8102 167.966 17.8548C167.966 22.8993 165.429 26.3235 161.118 26.3235C158.947 26.3235 157.296 25.3452 156.379 23.6025L156.287 25.9567H150.142V4.24966ZM156.165 17.8548C156.165 20.1478 157.113 21.921 158.855 21.921C160.506 21.921 161.576 20.1478 161.576 17.8548C161.576 15.4395 160.629 13.7579 158.855 13.7579C157.143 13.7579 156.165 15.47 156.165 17.8548Z" fill="#6A0DAD"/>
</g>
<defs>
<clipPath id="clip0_1082_7249">
<rect width="168" height="30.5732" fill="white"/>
</clipPath>
</defs>
</svg>
