<svg width="20" height="20" viewBox="0 0 20 20" fill="none" xmlns="http://www.w3.org/2000/svg">
<rect width="20" height="20" fill="none" style="mix-blend-mode:multiply"/>
<path d="M18.125 17.2412L13.4049 12.5211C14.5391 11.1595 15.1047 9.41298 14.984 7.64496C14.8633 5.87693 14.0656 4.22349 12.7569 3.02861C11.4482 1.83373 9.7292 1.18941 7.95751 1.22967C6.18583 1.26993 4.49786 1.99167 3.24477 3.24477C1.99167 4.49786 1.26993 6.18583 1.22967 7.95751C1.18941 9.7292 1.83373 11.4482 3.02861 12.7569C4.22349 14.0656 5.87693 14.8633 7.64496 14.984C9.41298 15.1047 11.1595 14.5391 12.5211 13.4049L17.2412 18.125L18.125 17.2412ZM2.50001 8.12501C2.50001 7.01249 2.82991 5.92495 3.44799 4.99992C4.06607 4.0749 4.94458 3.35393 5.97241 2.92818C7.00025 2.50244 8.13125 2.39105 9.22239 2.60809C10.3135 2.82513 11.3158 3.36086 12.1025 4.14753C12.8892 4.9342 13.4249 5.93648 13.6419 7.02762C13.859 8.11877 13.7476 9.24977 13.3218 10.2776C12.8961 11.3054 12.1751 12.1839 11.2501 12.802C10.3251 13.4201 9.23753 13.75 8.12501 13.75C6.63367 13.7484 5.20389 13.1552 4.14936 12.1007C3.09482 11.0461 2.50166 9.61634 2.50001 8.12501Z" fill="#49525C"/>
</svg>
