<svg width="21" height="20" viewBox="0 0 21 20" fill="none" xmlns="http://www.w3.org/2000/svg">
<path d="M9 4H12C12 3.60218 11.842 3.22064 11.5607 2.93934C11.2794 2.65804 10.8978 2.5 10.5 2.5C10.1022 2.5 9.72064 2.65804 9.43934 2.93934C9.15804 3.22064 9 3.60218 9 4ZM8 4C8 3.33696 8.26339 2.70107 8.73223 2.23223C9.20107 1.76339 9.83696 1.5 10.5 1.5C11.163 1.5 11.7989 1.76339 12.2678 2.23223C12.7366 2.70107 13 3.33696 13 4H18C18.1326 4 18.2598 4.05268 18.3536 4.14645C18.4473 4.24021 18.5 4.36739 18.5 4.5C18.5 4.63261 18.4473 4.75979 18.3536 4.85355C18.2598 4.94732 18.1326 5 18 5H16.946L15.752 15.344C15.6676 16.0752 15.3173 16.7498 14.7679 17.2396C14.2184 17.7293 13.508 17.9999 12.772 18H8.228C7.49195 17.9999 6.78161 17.7293 6.23214 17.2396C5.68266 16.7498 5.3324 16.0752 5.248 15.344L4.054 5H3C2.86739 5 2.74021 4.94732 2.64645 4.85355C2.55268 4.75979 2.5 4.63261 2.5 4.5C2.5 4.36739 2.55268 4.24021 2.64645 4.14645C2.74021 4.05268 2.86739 4 3 4H8ZM6.241 15.23C6.29743 15.7174 6.53105 16.167 6.89742 16.4934C7.26379 16.8198 7.73735 17.0001 8.228 17H12.772C13.2627 17.0001 13.7362 16.8198 14.1026 16.4934C14.469 16.167 14.7026 15.7174 14.759 15.23L15.939 5H5.061L6.241 15.23ZM9 7.5C9.13261 7.5 9.25979 7.55268 9.35355 7.64645C9.44732 7.74021 9.5 7.86739 9.5 8V14C9.5 14.1326 9.44732 14.2598 9.35355 14.3536C9.25979 14.4473 9.13261 14.5 9 14.5C8.86739 14.5 8.74021 14.4473 8.64645 14.3536C8.55268 14.2598 8.5 14.1326 8.5 14V8C8.5 7.86739 8.55268 7.74021 8.64645 7.64645C8.74021 7.55268 8.86739 7.5 9 7.5ZM12.5 8C12.5 7.86739 12.4473 7.74021 12.3536 7.64645C12.2598 7.55268 12.1326 7.5 12 7.5C11.8674 7.5 11.7402 7.55268 11.6464 7.64645C11.5527 7.74021 11.5 7.86739 11.5 8V14C11.5 14.1326 11.5527 14.2598 11.6464 14.3536C11.7402 14.4473 11.8674 14.5 12 14.5C12.1326 14.5 12.2598 14.4473 12.3536 14.3536C12.4473 14.2598 12.5 14.1326 12.5 14V8Z" fill="#F04438"/>
</svg>
