<svg width="20" height="20" viewBox="0 0 20 20" fill="none" xmlns="http://www.w3.org/2000/svg">
<g clip-path="url(#clip0_908_2355)">
<path d="M12.5 18.3338C12.279 18.3338 12.067 18.246 11.9107 18.0897C11.7545 17.9334 11.6667 17.7215 11.6667 17.5005V14.1671C11.6666 14.03 11.7005 13.8949 11.7652 13.774C11.8299 13.653 11.9234 13.5499 12.0375 13.4738L14.5375 11.8071C14.6744 11.7158 14.8354 11.667 15 11.667C15.1646 11.667 15.3256 11.7158 15.4625 11.8071L17.9625 13.4738C18.0766 13.5499 18.1701 13.653 18.2348 13.774C18.2995 13.8949 18.3334 14.03 18.3333 14.1671V17.5005C18.3333 17.7215 18.2455 17.9334 18.0893 18.0897C17.933 18.246 17.721 18.3338 17.5 18.3338H12.5Z" stroke="#344054" stroke-width="2" stroke-linecap="round" stroke-linejoin="round"/>
<path d="M15 8.33366C15 6.56555 14.2976 4.86986 13.0474 3.61961C11.7971 2.36937 10.1014 1.66699 8.33333 1.66699C6.56522 1.66699 4.86953 2.36937 3.61929 3.61961C2.36905 4.86986 1.66667 6.56555 1.66667 8.33366C1.66667 12.4945 6.2825 16.8278 7.8325 18.1662C7.97698 18.2745 8.15274 18.333 8.33333 18.3328" stroke="#344054" stroke-width="2" stroke-linecap="round" stroke-linejoin="round"/>
<path d="M15 18.333V15.833" stroke="#344054" stroke-width="2" stroke-linecap="round" stroke-linejoin="round"/>
<path d="M8.33333 10.833C9.71405 10.833 10.8333 9.71372 10.8333 8.33301C10.8333 6.9523 9.71405 5.83301 8.33333 5.83301C6.95262 5.83301 5.83333 6.9523 5.83333 8.33301C5.83333 9.71372 6.95262 10.833 8.33333 10.833Z" stroke="#344054" stroke-width="2" stroke-linecap="round" stroke-linejoin="round"/>
</g>
<defs>
<clipPath id="clip0_908_2355">
<rect width="20" height="20" fill="white"/>
</clipPath>
</defs>
</svg>
