<svg width="15" height="16" viewBox="0 0 15 16" fill="none" xmlns="http://www.w3.org/2000/svg">
<path d="M10.0001 14.5667C10.0334 14.8167 9.95011 15.0833 9.75844 15.2583C9.68135 15.3356 9.58977 15.3969 9.48896 15.4387C9.38815 15.4805 9.28008 15.502 9.17094 15.502C9.0618 15.502 8.95373 15.4805 8.85292 15.4387C8.75211 15.3969 8.66054 15.3356 8.58344 15.2583L5.24178 11.9167C5.15094 11.8278 5.08187 11.7191 5.03995 11.5991C4.99803 11.4792 4.98439 11.3511 5.00011 11.225V6.95833L1.00844 1.85C0.873116 1.67628 0.812054 1.45605 0.838599 1.23744C0.865144 1.01883 0.977138 0.819622 1.15011 0.683333C1.30844 0.566667 1.48344 0.5 1.66678 0.5H13.3334C13.5168 0.5 13.6918 0.566667 13.8501 0.683333C14.0231 0.819622 14.1351 1.01883 14.1616 1.23744C14.1882 1.45605 14.1271 1.67628 13.9918 1.85L10.0001 6.95833V14.5667ZM3.36678 2.16667L6.66678 6.38333V10.9833L8.33344 12.65V6.375L11.6334 2.16667H3.36678Z" fill="#344054"/>
</svg>
