<svg width="18" height="18" viewBox="0 0 18 18" fill="none" xmlns="http://www.w3.org/2000/svg">
<path d="M9.89984 9.74989H8.09984C7.91328 9.75082 7.73307 9.68218 7.59441 9.55736C7.45574 9.43254 7.36859 9.26052 7.34996 9.07489L6.74984 3.07513C6.73935 2.97053 6.75095 2.86489 6.78391 2.76507C6.81686 2.66524 6.87042 2.57346 6.94112 2.49566C7.01183 2.41786 7.09809 2.35579 7.19432 2.31348C7.29055 2.27116 7.3946 2.24953 7.49972 2.25001H10.5C10.6051 2.24948 10.7092 2.27106 10.8054 2.31336C10.9017 2.35566 10.988 2.41773 11.0587 2.49554C11.1294 2.57335 11.183 2.66516 11.2159 2.76501C11.2488 2.86486 11.2604 2.97052 11.2498 3.07513L10.6497 9.07489C10.6311 9.26052 10.5439 9.43254 10.4053 9.55736C10.2666 9.68218 10.0864 9.75082 9.89984 9.74989Z" stroke="#FDB022" stroke-linecap="round" stroke-linejoin="round"/>
<path d="M9.00032 15.7501C9.19925 15.7531 9.39681 15.7166 9.58149 15.6426C9.76617 15.5686 9.93429 15.4586 10.0761 15.3191C10.2178 15.1795 10.3304 15.0131 10.4073 14.8296C10.4841 14.646 10.5237 14.4491 10.5237 14.2501C10.5237 14.0512 10.4841 13.8542 10.4073 13.6707C10.3304 13.4872 10.2178 13.3208 10.0761 13.1812C9.93429 13.0416 9.76617 12.9316 9.58149 12.8576C9.39681 12.7836 9.19925 12.7471 9.00032 12.7502C8.60653 12.7563 8.23094 12.917 7.95463 13.1976C7.67831 13.4783 7.52344 13.8563 7.52344 14.2501C7.52344 14.644 7.67831 15.022 7.95463 15.3026C8.23094 15.5832 8.60653 15.744 9.00032 15.7501Z" stroke="#FDB022" stroke-linecap="round" stroke-linejoin="round"/>
</svg>
