<svg width="52" height="52" viewBox="0 0 52 52" fill="none" xmlns="http://www.w3.org/2000/svg">
<path d="M29.25 17.3333H26V28.1667L35.2733 33.67L36.8333 31.0483L29.25 26.5417V17.3333ZM28.1667 6.5C22.9949 6.5 18.035 8.55446 14.3781 12.2114C10.7211 15.8684 8.66666 20.8283 8.66666 26H2.16666L10.7467 34.7317L19.5 26H13C13 21.9776 14.5979 18.1198 17.4422 15.2755C20.2865 12.4312 24.1442 10.8333 28.1667 10.8333C32.1891 10.8333 36.0468 12.4312 38.8911 15.2755C41.7354 18.1198 43.3333 21.9776 43.3333 26C43.3333 30.0225 41.7354 33.8802 38.8911 36.7245C36.0468 39.5688 32.1891 41.1667 28.1667 41.1667C23.985 41.1667 20.1933 39.455 17.4633 36.7033L14.3867 39.78C16.1885 41.6009 18.3351 43.0446 20.701 44.0267C23.067 45.0088 25.605 45.5097 28.1667 45.5C33.3384 45.5 38.2983 43.4455 41.9552 39.7886C45.6122 36.1316 47.6667 31.1717 47.6667 26C47.6667 20.8283 45.6122 15.8684 41.9552 12.2114C38.2983 8.55446 33.3384 6.5 28.1667 6.5Z" fill="#344054"/>
</svg>
