<svg width="32" height="31" viewBox="0 0 32 31" fill="none" xmlns="http://www.w3.org/2000/svg">
<rect width="31.5" height="31" rx="15.5" fill="#FFFCF5"/>
<path d="M15.7999 15.6666H14.1999C14.0341 15.6674 13.8739 15.6064 13.7506 15.4954C13.6274 15.3845 13.5499 15.2316 13.5334 15.0666L12.9999 9.73345C12.9906 9.64047 13.0009 9.54657 13.0302 9.45784C13.0595 9.3691 13.1071 9.28752 13.1699 9.21836C13.2328 9.14921 13.3095 9.09404 13.395 9.05642C13.4805 9.01881 13.573 8.99959 13.6665 9.00001H16.3334C16.4268 8.99954 16.5193 9.01872 16.6049 9.05632C16.6904 9.09392 16.7671 9.14909 16.83 9.21826C16.8929 9.28742 16.9405 9.36903 16.9697 9.45779C16.999 9.54654 17.0093 9.64046 16.9999 9.73345L16.4665 15.0666C16.4499 15.2316 16.3724 15.3845 16.2492 15.4954C16.1259 15.6064 15.9657 15.6674 15.7999 15.6666Z" stroke="#DC6803" stroke-linecap="round" stroke-linejoin="round"/>
<path d="M14.9998 20.9997C15.1766 21.0025 15.3522 20.97 15.5164 20.9042C15.6806 20.8385 15.83 20.7407 15.956 20.6166C16.082 20.4925 16.1821 20.3446 16.2504 20.1815C16.3187 20.0184 16.3539 19.8433 16.3539 19.6664C16.3539 19.4896 16.3187 19.3145 16.2504 19.1514C16.1821 18.9883 16.082 18.8404 15.956 18.7163C15.83 18.5922 15.6806 18.4944 15.5164 18.4287C15.3522 18.3629 15.1766 18.3304 14.9998 18.3332C14.6498 18.3386 14.3159 18.4814 14.0703 18.7309C13.8247 18.9803 13.687 19.3164 13.687 19.6664C13.687 20.0165 13.8247 20.3526 14.0703 20.602C14.3159 20.8514 14.6498 20.9943 14.9998 20.9997Z" stroke="#DC6803" stroke-linecap="round" stroke-linejoin="round"/>
</svg>
