<svg width="32" height="31" viewBox="0 0 32 31" fill="none" xmlns="http://www.w3.org/2000/svg">
<rect width="31.5" height="31" rx="15.5" fill="#FFFBFA"/>
<path fill-rule="evenodd" clip-rule="evenodd" d="M11.3335 8.83301C11.4661 8.83301 11.5933 8.88569 11.687 8.97945C11.7808 9.07322 11.8335 9.2004 11.8335 9.33301V10.0563L12.8828 9.84634C14.0784 9.60752 15.3176 9.72148 16.4495 10.1743L16.5848 10.2283C17.528 10.6055 18.566 10.676 19.5515 10.4297C19.7432 10.3817 19.9432 10.3781 20.1365 10.4191C20.3298 10.4601 20.5112 10.5446 20.6669 10.6662C20.8226 10.7878 20.9486 10.9433 21.0352 11.1209C21.1218 11.2985 21.1669 11.4934 21.1668 11.691V16.6023C21.1668 17.261 20.7182 17.8357 20.0788 17.9957L19.9362 18.031C18.6544 18.3513 17.3042 18.2596 16.0775 17.769C15.1258 17.3885 14.0839 17.2928 13.0788 17.4937L11.8335 17.743V22.6663C11.8335 22.7989 11.7808 22.9261 11.687 23.0199C11.5933 23.1137 11.4661 23.1663 11.3335 23.1663C11.2009 23.1663 11.0737 23.1137 10.9799 23.0199C10.8862 22.9261 10.8335 22.7989 10.8335 22.6663V9.33301C10.8335 9.2004 10.8862 9.07322 10.9799 8.97945C11.0737 8.88569 11.2009 8.83301 11.3335 8.83301ZM11.8335 16.723L12.8828 16.513C14.0784 16.2742 15.3176 16.3881 16.4495 16.841C17.4809 17.2533 18.6159 17.3303 19.6935 17.061L19.8368 17.025C19.9311 17.0014 20.0147 16.947 20.0745 16.8704C20.1343 16.7938 20.1668 16.6995 20.1668 16.6023V11.691C20.1669 11.6454 20.1565 11.6004 20.1365 11.5594C20.1166 11.5184 20.0875 11.4825 20.0516 11.4544C20.0157 11.4263 19.9738 11.4068 19.9292 11.3973C19.8846 11.3878 19.8384 11.3886 19.7942 11.3997C18.6048 11.6971 17.3519 11.6122 16.2135 11.157L16.0775 11.1023C15.1258 10.7218 14.0839 10.6262 13.0788 10.827L11.8335 11.0763V16.723Z" fill="#D92D20"/>
</svg>
