<svg width="32" height="31" viewBox="0 0 32 31" fill="none" xmlns="http://www.w3.org/2000/svg">
<rect width="31.5" height="31" rx="15.5" fill="#F6FEF9"/>
<path d="M12 10.5C10.349 10.5 9 11.849 9 13.5C9.00061 13.9724 9.11278 14.438 9.32739 14.8589C9.542 15.2798 9.85298 15.6441 10.235 15.922C8.915 16.577 8 17.932 8 19.5H9C9 17.837 10.337 16.5 12 16.5C13.663 16.5 15 17.837 15 19.5H16C16 17.837 17.337 16.5 19 16.5C20.663 16.5 22 17.837 22 19.5H23C23 17.932 22.085 16.577 20.765 15.922C21.147 15.6441 21.458 15.2798 21.6726 14.8589C21.8872 14.438 21.9994 13.9724 22 13.5C22 11.849 20.651 10.5 19 10.5C17.349 10.5 16 11.849 16 13.5C16.0006 13.9724 16.1128 14.438 16.3274 14.8589C16.542 15.2798 16.853 15.6441 17.235 15.922C16.5041 16.2806 15.8992 16.8524 15.5 17.562C15.1008 16.8524 14.4959 16.2806 13.765 15.922C14.147 15.6441 14.458 15.2798 14.6726 14.8589C14.8872 14.438 14.9994 13.9724 15 13.5C15 11.849 13.651 10.5 12 10.5ZM12 11.5C13.11 11.5 14 12.39 14 13.5C14 14.61 13.11 15.5 12 15.5C10.89 15.5 10 14.61 10 13.5C10 12.39 10.89 11.5 12 11.5ZM19 11.5C20.11 11.5 21 12.39 21 13.5C21 14.61 20.11 15.5 19 15.5C17.89 15.5 17 14.61 17 13.5C17 12.39 17.89 11.5 19 11.5Z" fill="#12B76A"/>
</svg>
