<svg width="21" height="20" viewBox="0 0 21 20" fill="none" xmlns="http://www.w3.org/2000/svg">
<path d="M13 16.5667C13.0333 16.8167 12.95 17.0833 12.7583 17.2583C12.6812 17.3356 12.5897 17.3969 12.4888 17.4387C12.388 17.4805 12.28 17.502 12.1708 17.502C12.0617 17.502 11.9536 17.4805 11.8528 17.4387C11.752 17.3969 11.6604 17.3356 11.5833 17.2583L8.24165 13.9167C8.15082 13.8278 8.08175 13.7191 8.03983 13.5991C7.99791 13.4792 7.98427 13.3511 7.99999 13.225V8.95833L4.00832 3.85C3.87299 3.67628 3.81193 3.45605 3.83848 3.23744C3.86502 3.01883 3.97702 2.81962 4.14999 2.68333C4.30832 2.56667 4.48332 2.5 4.66665 2.5H16.3333C16.5167 2.5 16.6917 2.56667 16.85 2.68333C17.023 2.81962 17.135 3.01883 17.1615 3.23744C17.188 3.45605 17.127 3.67628 16.9917 3.85L13 8.95833V16.5667ZM6.36665 4.16667L9.66665 8.38333V12.9833L11.3333 14.65V8.375L14.6333 4.16667H6.36665Z" fill="#344054"/>
</svg>
