<svg width="32" height="31" viewBox="0 0 32 31" fill="none" xmlns="http://www.w3.org/2000/svg">
<rect width="31.5" height="31" rx="15.5" fill="#FFFBFA"/>
<path fill-rule="evenodd" clip-rule="evenodd" d="M11.3333 8.8335C11.4659 8.8335 11.5931 8.88617 11.6869 8.97994C11.7807 9.07371 11.8333 9.20089 11.8333 9.3335V10.0568L12.8827 9.84683C14.0782 9.60801 15.3174 9.72197 16.4493 10.1748L16.5847 10.2288C17.5278 10.606 18.5659 10.6765 19.5513 10.4302C19.743 10.3822 19.9431 10.3786 20.1364 10.4196C20.3296 10.4606 20.511 10.5451 20.6668 10.6667C20.8225 10.7883 20.9484 10.9438 21.0351 11.1214C21.1217 11.2989 21.1667 11.4939 21.1667 11.6915V16.6028C21.1667 17.2615 20.718 17.8362 20.0787 17.9962L19.936 18.0315C18.6542 18.3518 17.3041 18.2601 16.0773 17.7695C15.1256 17.389 14.0838 17.2933 13.0787 17.4942L11.8333 17.7435V22.6668C11.8333 22.7994 11.7807 22.9266 11.6869 23.0204C11.5931 23.1142 11.4659 23.1668 11.3333 23.1668C11.2007 23.1668 11.0736 23.1142 10.9798 23.0204C10.886 22.9266 10.8333 22.7994 10.8333 22.6668V9.3335C10.8333 9.20089 10.886 9.07371 10.9798 8.97994C11.0736 8.88617 11.2007 8.8335 11.3333 8.8335ZM11.8333 16.7235L12.8827 16.5135C14.0782 16.2747 15.3174 16.3886 16.4493 16.8415C17.4807 17.2538 18.6157 17.3308 19.6933 17.0615L19.8367 17.0255C19.9309 17.0019 20.0145 16.9475 20.0743 16.8709C20.1341 16.7943 20.1666 16.7 20.1667 16.6028V11.6915C20.1667 11.6459 20.1564 11.6009 20.1364 11.5599C20.1164 11.5189 20.0874 11.483 20.0514 11.4549C20.0155 11.4268 19.9736 11.4073 19.929 11.3978C19.8844 11.3883 19.8382 11.3891 19.794 11.4002C18.6046 11.6976 17.3517 11.6127 16.2133 11.1575L16.0773 11.1028C15.1256 10.7223 14.0838 10.6266 13.0787 10.8275L11.8333 11.0768V16.7235Z" fill="#D92D20"/>
</svg>
