<svg width="32" height="31" viewBox="0 0 32 31" fill="none" xmlns="http://www.w3.org/2000/svg">
<rect width="31.5" height="31" rx="15.5" fill="#FFFCF5"/>
<path d="M15.8 15.6666H14.2C14.0342 15.6674 13.874 15.6064 13.7507 15.4954C13.6275 15.3845 13.55 15.2316 13.5334 15.0666L13 9.73345C12.9907 9.64047 13.001 9.54657 13.0303 9.45784C13.0596 9.3691 13.1072 9.28752 13.17 9.21836C13.2329 9.14921 13.3096 9.09404 13.3951 9.05642C13.4806 9.01881 13.5731 8.99959 13.6666 9.00001H16.3334C16.4269 8.99954 16.5194 9.01872 16.605 9.05632C16.6905 9.09392 16.7672 9.14909 16.8301 9.21826C16.8929 9.28742 16.9406 9.36903 16.9698 9.45779C16.9991 9.54654 17.0094 9.64046 17 9.73345L16.4666 15.0666C16.45 15.2316 16.3725 15.3845 16.2493 15.4954C16.126 15.6064 15.9658 15.6674 15.8 15.6666Z" stroke="#DC6803" stroke-linecap="round" stroke-linejoin="round"/>
<path d="M15 21.0002C15.1768 21.003 15.3524 20.9705 15.5166 20.9047C15.6808 20.8389 15.8302 20.7412 15.9562 20.6171C16.0822 20.493 16.1823 20.3451 16.2506 20.182C16.3189 20.0189 16.3541 19.8438 16.3541 19.6669C16.3541 19.4901 16.3189 19.315 16.2506 19.1519C16.1823 18.9888 16.0822 18.8409 15.9562 18.7168C15.8302 18.5927 15.6808 18.4949 15.5166 18.4292C15.3524 18.3634 15.1768 18.3309 15 18.3337C14.65 18.3391 14.3161 18.4819 14.0705 18.7314C13.8249 18.9808 13.6872 19.3169 13.6872 19.6669C13.6872 20.017 13.8249 20.353 14.0705 20.6025C14.3161 20.8519 14.65 20.9948 15 21.0002Z" stroke="#DC6803" stroke-linecap="round" stroke-linejoin="round"/>
</svg>
