<svg width="32" height="31" viewBox="0 0 32 31" fill="none" xmlns="http://www.w3.org/2000/svg">
<rect width="31.5" height="31" rx="15.5" fill="#F6FEF9"/>
<path fill-rule="evenodd" clip-rule="evenodd" d="M22.364 11.4074C22.5515 11.5949 22.6568 11.8492 22.6568 12.1144C22.6568 12.3795 22.5515 12.6338 22.364 12.8214L14.8687 20.3167C14.7696 20.4158 14.652 20.4944 14.5226 20.548C14.3932 20.6016 14.2544 20.6292 14.1143 20.6292C13.9742 20.6292 13.8355 20.6016 13.7061 20.548C13.5767 20.4944 13.4591 20.4158 13.36 20.3167L9.636 16.5934C9.54049 16.5011 9.46431 16.3908 9.4119 16.2688C9.35949 16.1468 9.3319 16.0156 9.33075 15.8828C9.3296 15.75 9.3549 15.6183 9.40518 15.4954C9.45546 15.3725 9.52971 15.2609 9.6236 15.167C9.7175 15.0731 9.82915 14.9988 9.95205 14.9486C10.0749 14.8983 10.2066 14.873 10.3394 14.8741C10.4722 14.8753 10.6034 14.9029 10.7254 14.9553C10.8474 15.0077 10.9578 15.0839 11.05 15.1794L14.114 18.2434L20.9493 11.4074C21.0422 11.3145 21.1525 11.2407 21.2738 11.1904C21.3952 11.1401 21.5253 11.1143 21.6567 11.1143C21.788 11.1143 21.9181 11.1401 22.0395 11.1904C22.1609 11.2407 22.2711 11.3145 22.364 11.4074Z" fill="#12B76A"/>
</svg>
