<svg width="56" height="57" viewBox="0 0 56 57" fill="none" xmlns="http://www.w3.org/2000/svg">
<rect x="4" y="4.5" width="48" height="48" rx="24" fill="white"/>
<rect x="4" y="4.5" width="48" height="48" rx="24" stroke="#F2FBFB" stroke-width="8"/>
<g clip-path="url(#clip0_1589_14349)">
<path d="M35.0289 22.7232C35.0289 22.8449 34.9806 22.9615 34.8946 23.0476C34.8085 23.1336 34.6919 23.1819 34.5702 23.1819C32.0432 23.1819 29.8724 21.629 28.961 19.4276C28.0496 21.629 25.8788 23.1819 23.3518 23.1819C23.0984 23.1819 22.8931 22.9766 22.8931 22.7232C22.8931 22.4698 23.0984 22.2645 23.3518 22.2645C26.1918 22.2645 28.5023 19.954 28.5023 17.114C28.5023 16.8606 28.7076 16.6553 28.961 16.6553C29.2143 16.6553 29.4198 16.8606 29.4198 17.114C29.4198 19.954 31.7302 22.2645 34.5702 22.2645C34.6919 22.2645 34.8085 22.3128 34.8946 22.3988C34.9806 22.4849 35.0289 22.6015 35.0289 22.7232Z" fill="#2B3B47"/>
<path d="M17.0591 27.1582C17.0591 24.0187 19.6042 21.4736 22.7437 21.4736C25.8832 21.4736 28.4282 24.0187 28.4282 27.1582M40.9405 27.1582C40.9405 24.0187 38.3954 21.4736 35.2559 21.4736C32.1164 21.4736 29.5713 24.0187 29.5713 27.1582" fill="#FFB636"/>
<path d="M18.7617 27.1582C18.7617 24.0187 22.1414 21.4736 22.7437 21.4736C23.346 21.4736 20.943 24.0187 20.943 27.1582M33.4552 27.1582C33.4552 24.0187 35.8583 21.4736 35.256 21.4736C34.6536 21.4736 31.274 24.0187 31.274 27.1582" fill="#FFD469"/>
<path d="M22.7437 28.2309C19.6042 28.2309 17.0591 27.8137 17.0591 27.2991C17.0591 26.7844 19.6042 26.3672 22.7437 26.3672C25.8832 26.3672 28.4282 26.7844 28.4282 27.2991C28.4282 27.8137 25.8832 28.2309 22.7437 28.2309ZM40.9405 27.2991C40.9405 26.7844 38.3954 26.3672 35.2559 26.3672C32.1164 26.3672 29.5713 26.7844 29.5713 27.2991C29.5713 27.8137 32.1164 28.2309 35.2559 28.2309C38.3954 28.2309 40.9405 27.8137 40.9405 27.2991Z" fill="#A06C33"/>
<path d="M29.9842 32.0943C29.9842 32.457 29.6902 32.751 29.3275 32.751C28.9648 32.751 28.6707 32.457 28.6707 32.0943C28.6707 31.7315 28.9648 31.4375 29.3275 31.4375C29.6902 31.4375 29.9842 31.7316 29.9842 32.0943ZM33.0283 38.4468C32.7082 38.4468 32.4487 38.7063 32.4487 39.0263C32.4487 39.3464 32.7082 39.6058 33.0283 39.6058C33.3483 39.6058 33.6078 39.3464 33.6078 39.0263C33.6078 38.7063 33.3483 38.4468 33.0283 38.4468ZM20.309 35.4701C19.9889 35.4701 19.7295 35.7295 19.7295 36.0496C19.7295 36.3696 19.9889 36.6291 20.309 36.6291C20.6291 36.6291 20.8885 36.3696 20.8885 36.0496C20.8885 35.7295 20.6291 35.4701 20.309 35.4701Z" fill="#FFB636"/>
<path d="M24.1107 38.792C24.1107 39.211 23.771 39.5507 23.352 39.5507C22.933 39.5507 22.5933 39.211 22.5933 38.792C22.5933 38.3729 22.933 38.0332 23.352 38.0332C23.771 38.0332 24.1107 38.3729 24.1107 38.792ZM35.9427 27.6903C35.6657 27.4063 35.2767 27.2149 34.8476 27.1515C34.5972 27.1144 34.3632 27.2877 34.3261 27.5386C34.289 27.7896 34.4623 28.023 34.7133 28.0601C34.9414 28.0938 35.1499 28.1928 35.2854 28.3316C35.3461 28.3939 35.4447 28.5197 35.4235 28.6634C35.4023 28.8072 35.2714 28.8991 35.1953 28.9411C35.0254 29.0349 34.7972 29.0692 34.5691 29.0355C33.6368 28.8979 32.7856 29.4119 32.6717 30.1819C32.5579 30.9517 33.2238 31.6903 34.1562 31.8281C34.1611 31.8288 34.1659 31.8286 34.1707 31.8292C34.6232 31.9016 34.9004 32.2017 34.8667 32.4299C34.8454 32.5736 34.7146 32.6656 34.6384 32.7076C34.4685 32.8013 34.2404 32.8358 34.0122 32.802C33.08 32.6643 32.2287 33.1784 32.1148 33.9484C32.001 34.7182 32.667 35.4568 33.5994 35.5946C33.6221 35.5979 33.6447 35.5996 33.6671 35.5996C33.891 35.5996 34.0871 35.4356 34.1208 35.2075C34.1579 34.9566 33.9846 34.7232 33.7337 34.686C33.2726 34.6179 32.9893 34.3133 33.0234 34.0827C33.0575 33.852 33.4167 33.6421 33.8779 33.7106C33.9806 33.7258 34.0833 33.7333 34.1848 33.7333C34.5072 33.7333 34.8179 33.6576 35.0822 33.5117C35.4649 33.3006 35.7175 32.9552 35.7753 32.5642C35.8891 31.7944 35.2231 31.0559 34.2907 30.918C34.2846 30.9171 34.2785 30.9169 34.2724 30.9162C33.8223 30.8428 33.5466 30.5437 33.5802 30.3162C33.6143 30.0855 33.9736 29.8757 34.4347 29.9441C34.5374 29.9593 34.6401 29.9668 34.7416 29.9668C35.0641 29.9668 35.3747 29.8911 35.6389 29.7452C36.0216 29.5341 36.2742 29.1887 36.332 28.7977C36.3898 28.4068 36.2479 28.0031 35.9427 27.6903Z" fill="#BEA4FF"/>
<path d="M30.5155 36.8076C30.5155 37.2266 30.1758 37.5663 29.7568 37.5663C29.3377 37.5663 28.998 37.2266 28.998 36.8076C28.998 36.3886 29.3377 36.0489 29.7568 36.0489C30.1758 36.0489 30.5155 36.3886 30.5155 36.8076ZM22.652 29.102C22.3571 28.8152 21.9495 28.6275 21.5043 28.5736C21.4981 28.5729 21.4919 28.5728 21.4858 28.5723C21.0848 28.5169 20.8131 28.2618 20.837 28.0653C20.8719 27.7767 20.6663 27.5144 20.3777 27.4794C20.0894 27.4447 19.8268 27.6501 19.7918 27.9386C19.6921 28.7617 20.3886 29.5004 21.3775 29.6202C21.383 29.6209 21.3884 29.6208 21.3939 29.6212C21.6021 29.6496 21.7925 29.7346 21.9179 29.8567C21.9713 29.9086 22.0588 30.013 22.0449 30.1286C22.0309 30.244 21.9209 30.3245 21.8567 30.3622C21.7017 30.4531 21.4898 30.4903 21.2752 30.4643C20.8299 30.4102 20.3893 30.4952 20.0345 30.7033C19.6393 30.935 19.3838 31.3051 19.3337 31.7184C19.234 32.5415 19.9304 33.2801 20.9193 33.4C20.9408 33.4026 20.9622 33.4039 20.9833 33.4039C21.2458 33.4039 21.4729 33.2079 21.5052 32.9408C21.5402 32.6522 21.3346 32.3899 21.046 32.3549C20.6348 32.3051 20.3546 32.0446 20.3788 31.8451C20.3928 31.7296 20.5027 31.6491 20.567 31.6114C20.722 31.5205 20.9339 31.4833 21.1485 31.5093C21.236 31.52 21.3233 31.5252 21.4098 31.5252C21.7636 31.5252 22.1041 31.4376 22.3892 31.2703C22.7845 31.0386 23.0398 30.6685 23.09 30.2553C23.1401 29.8419 22.9805 29.4215 22.652 29.102ZM38.2668 39.8505C38.5099 39.6911 38.5777 39.3648 38.4183 39.1217C36.6542 36.4317 38.0067 34.5355 38.8147 33.4027C38.913 33.2649 39.0058 33.1347 39.0815 33.018C39.2398 32.7741 39.1703 32.4482 38.9264 32.29C38.6825 32.1318 38.3565 32.2012 38.1983 32.4451C38.1352 32.5424 38.0529 32.6577 37.9576 32.7914C37.1206 33.9649 35.3788 36.4068 37.5379 39.699C37.5858 39.7721 37.6512 39.8322 37.7281 39.8737C37.8051 39.9152 37.8912 39.9369 37.9786 39.9368C38.081 39.9368 38.1812 39.9068 38.2668 39.8505Z" fill="#FF6E83"/>
<path d="M27.9986 29.9059C27.9986 30.1962 27.7633 30.4315 27.473 30.4315C27.1827 30.4315 26.9474 30.1962 26.9474 29.9059C26.9474 29.6156 27.1827 29.3803 27.473 29.3803C27.7633 29.3803 27.9986 29.6156 27.9986 29.9059ZM39.2041 29.0215C38.9223 29.0215 38.6939 29.25 38.6939 29.5317C38.6939 29.8135 38.9223 30.042 39.2041 30.042C39.4859 30.042 39.7143 29.8135 39.7143 29.5317C39.7143 29.25 39.4859 29.0215 39.2041 29.0215ZM24.5718 36.7343C24.6511 36.6484 24.7462 36.552 24.8469 36.4499C25.3577 35.9318 26.0573 35.2222 26.36 34.2518C26.7236 33.086 26.4114 31.8471 25.4319 30.5694C25.2618 30.3476 24.9443 30.3058 24.7226 30.4757C24.5008 30.6458 24.4589 30.9633 24.6288 31.185C25.4074 32.2006 25.6578 33.1052 25.3941 33.9504C25.1644 34.6865 24.5888 35.2704 24.1263 35.7395C24.0198 35.8477 23.9191 35.9497 23.8286 36.0477C23.639 36.2529 23.6517 36.573 23.857 36.7626C23.9503 36.8491 24.0729 36.897 24.2001 36.8969C24.27 36.897 24.3391 36.8826 24.4031 36.8546C24.467 36.8266 24.5245 36.7856 24.5718 36.7343Z" fill="#59CAFC"/>
</g>
<defs>
<clipPath id="clip0_1589_14349">
<rect width="24" height="24" fill="white" transform="translate(17 16.5)"/>
</clipPath>
</defs>
</svg>
